<?xml version="1.0" encoding="us-ascii" standalone="no"?><svg xmlns="http://www.w3.org/2000/svg" xmlns:xlink="http://www.w3.org/1999/xlink" contentStyleType="text/css" height="669px" preserveAspectRatio="none" style="width:400px;height:669px;background:#FFFFFF;" version="1.1" viewBox="0 0 400 669" width="400px" zoomAndPan="magnify"><defs/><g><text fill="#000000" font-family="sans-serif" font-size="14" font-weight="bold" lengthAdjust="spacing" textLength="137" x="130" y="32.9951">Activity Diagram</text><ellipse cx="149.5" cy="57.2969" fill="#222222" rx="10" ry="10" style="stroke:#222222;stroke-width:1.0;"/><rect fill="#F1F1F1" height="33.9688" rx="12.5" ry="12.5" style="stroke:#181818;stroke-width:0.5;" width="86" x="106.5" y="131.2969"/><text fill="#000000" font-family="sans-serif" font-size="12" lengthAdjust="spacing" textLength="66" x="116.5" y="152.4355">add Yellow</text><rect fill="#F1F1F1" height="33.9688" rx="12.5" ry="12.5" style="stroke:#181818;stroke-width:0.5;" width="70" x="114.5" y="192.7656"/><text fill="#000000" font-family="sans-serif" font-size="12" lengthAdjust="spacing" textLength="50" x="124.5" y="213.9043">add Red</text><polygon fill="#F1F1F1" points="149.5,87.2969,161.5,99.2969,149.5,111.2969,137.5,99.2969,149.5,87.2969" style="stroke:#181818;stroke-width:0.5;"/><polygon fill="#F1F1F1" points="66.5,246.7344,232.5,246.7344,244.5,258.7344,232.5,270.7344,66.5,270.7344,54.5,258.7344,66.5,246.7344" style="stroke:#181818;stroke-width:0.5;"/><text fill="#000000" font-family="sans-serif" font-size="11" lengthAdjust="spacing" textLength="21" x="153.5" y="280.9448">yes</text><text fill="#000000" font-family="sans-serif" font-size="11" lengthAdjust="spacing" textLength="166" x="66.5" y="262.5425">are there 3 Yellow&#347; on board</text><text fill="#000000" font-family="sans-serif" font-size="11" lengthAdjust="spacing" textLength="14" x="244.5" y="256.1401">no</text><rect fill="#F1F1F1" height="33.9688" rx="12.5" ry="12.5" style="stroke:#181818;stroke-width:0.5;" width="86" x="106.5" y="302.4448"/><text fill="#000000" font-family="sans-serif" font-size="12" lengthAdjust="spacing" textLength="66" x="116.5" y="323.5835">add Yellow</text><polygon fill="#F1F1F1" points="91,417.2183,208,417.2183,220,429.2183,208,441.2183,91,441.2183,79,429.2183,91,417.2183" style="stroke:#181818;stroke-width:0.5;"/><text fill="#000000" font-family="sans-serif" font-size="11" lengthAdjust="spacing" textLength="117" x="91" y="433.0264">Board is completed?</text><text fill="#000000" font-family="sans-serif" font-size="11" lengthAdjust="spacing" textLength="21" x="58" y="426.624">yes</text><text fill="#000000" font-family="sans-serif" font-size="11" lengthAdjust="spacing" textLength="14" x="220" y="426.624">no</text><rect fill="#F1F1F1" height="33.9688" rx="12.5" ry="12.5" style="stroke:#181818;stroke-width:0.5;" width="35" x="51.5" y="451.2183"/><text fill="#000000" font-family="sans-serif" font-size="12" lengthAdjust="spacing" textLength="15" x="61.5" y="472.3569">tie</text><ellipse cx="69" cy="516.187" fill="none" rx="11" ry="11" style="stroke:#222222;stroke-width:1.0;"/><ellipse cx="69" cy="516.187" fill="#222222" rx="6" ry="6" style="stroke:#222222;stroke-width:1.0;"/><rect fill="#F1F1F1" height="33.9688" rx="12.5" ry="12.5" style="stroke:#181818;stroke-width:0.5;" width="70" x="195" y="451.2183"/><text fill="#000000" font-family="sans-serif" font-size="12" lengthAdjust="spacing" textLength="50" x="205" y="472.3569">add Red</text><rect fill="#F1F1F1" height="33.9688" rx="12.5" ry="12.5" style="stroke:#181818;stroke-width:0.5;" width="86" x="187" y="601.9917"/><text fill="#000000" font-family="sans-serif" font-size="12" lengthAdjust="spacing" textLength="66" x="197" y="623.1304">add Yellow</text><polygon fill="#F1F1F1" points="183.5,553.5894,276.5,553.5894,288.5,565.5894,276.5,577.5894,183.5,577.5894,171.5,565.5894,183.5,553.5894" style="stroke:#181818;stroke-width:0.5;"/><text fill="#000000" font-family="sans-serif" font-size="11" lengthAdjust="spacing" textLength="14" x="234" y="587.7998">no</text><text fill="#000000" font-family="sans-serif" font-size="11" lengthAdjust="spacing" textLength="93" x="183.5" y="569.3975">run out of discs?</text><text fill="#000000" font-family="sans-serif" font-size="11" lengthAdjust="spacing" textLength="21" x="288.5" y="562.9951">yes</text><ellipse cx="331.5" cy="565.5894" fill="none" rx="11" ry="11" style="stroke:#222222;stroke-width:1.0;"/><ellipse cx="331.5" cy="565.5894" fill="#222222" rx="6" ry="6" style="stroke:#222222;stroke-width:1.0;"/><polygon fill="#F1F1F1" points="166,505.187,294,505.187,306,517.187,294,529.187,166,529.187,154,517.187,166,505.187" style="stroke:#181818;stroke-width:0.5;"/><text fill="#000000" font-family="sans-serif" font-size="11" lengthAdjust="spacing" textLength="14" x="234" y="539.3975">no</text><text fill="#000000" font-family="sans-serif" font-size="11" lengthAdjust="spacing" textLength="128" x="166" y="520.9951">check is connect4 Red</text><text fill="#000000" font-family="sans-serif" font-size="11" lengthAdjust="spacing" textLength="21" x="306" y="514.5928">yes</text><ellipse cx="349" cy="517.187" fill="none" rx="11" ry="11" style="stroke:#222222;stroke-width:1.0;"/><ellipse cx="349" cy="517.187" fill="#222222" rx="6" ry="6" style="stroke:#222222;stroke-width:1.0;"/><polygon fill="#F1F1F1" points="78,356.4136,221,356.4136,233,368.4136,221,380.4136,78,380.4136,66,368.4136,78,356.4136" style="stroke:#181818;stroke-width:0.5;"/><text fill="#000000" font-family="sans-serif" font-size="11" lengthAdjust="spacing" textLength="14" x="153.5" y="390.624">no</text><text fill="#000000" font-family="sans-serif" font-size="11" lengthAdjust="spacing" textLength="143" x="78" y="372.2217">check is connect4 Yellow</text><text fill="#000000" font-family="sans-serif" font-size="11" lengthAdjust="spacing" textLength="21" x="45" y="365.8193">yes</text><ellipse cx="24" cy="415.4136" fill="none" rx="11" ry="11" style="stroke:#222222;stroke-width:1.0;"/><ellipse cx="24" cy="415.4136" fill="#222222" rx="6" ry="6" style="stroke:#222222;stroke-width:1.0;"/><line style="stroke:#181818;stroke-width:1.0;" x1="149.5" x2="149.5" y1="165.2656" y2="192.7656"/><polygon fill="#181818" points="145.5,182.7656,149.5,192.7656,153.5,182.7656,149.5,186.7656" style="stroke:#181818;stroke-width:1.0;"/><line style="stroke:#181818;stroke-width:1.0;" x1="149.5" x2="149.5" y1="111.2969" y2="131.2969"/><polygon fill="#181818" points="145.5,121.2969,149.5,131.2969,153.5,121.2969,149.5,125.2969" style="stroke:#181818;stroke-width:1.0;"/><line style="stroke:#181818;stroke-width:1.0;" x1="244.5" x2="256.5" y1="258.7344" y2="258.7344"/><polygon fill="#181818" points="252.5,185.2656,256.5,175.2656,260.5,185.2656,256.5,181.2656" style="stroke:#181818;stroke-width:1.0;"/><line style="stroke:#181818;stroke-width:1.0;" x1="256.5" x2="256.5" y1="99.2969" y2="258.7344"/><line style="stroke:#181818;stroke-width:1.0;" x1="256.5" x2="161.5" y1="99.2969" y2="99.2969"/><polygon fill="#181818" points="171.5,95.2969,161.5,99.2969,171.5,103.2969,167.5,99.2969" style="stroke:#181818;stroke-width:1.0;"/><line style="stroke:#181818;stroke-width:1.0;" x1="149.5" x2="149.5" y1="226.7344" y2="246.7344"/><polygon fill="#181818" points="145.5,236.7344,149.5,246.7344,153.5,236.7344,149.5,240.7344" style="stroke:#181818;stroke-width:1.0;"/><line style="stroke:#181818;stroke-width:1.0;" x1="149.5" x2="149.5" y1="67.2969" y2="87.2969"/><polygon fill="#181818" points="145.5,77.2969,149.5,87.2969,153.5,77.2969,149.5,81.2969" style="stroke:#181818;stroke-width:1.0;"/><line style="stroke:#181818;stroke-width:1.0;" x1="149.5" x2="149.5" y1="270.7344" y2="302.4448"/><polygon fill="#181818" points="145.5,292.4448,149.5,302.4448,153.5,292.4448,149.5,296.4448" style="stroke:#181818;stroke-width:1.0;"/><line style="stroke:#181818;stroke-width:1.0;" x1="69" x2="69" y1="485.187" y2="505.187"/><polygon fill="#181818" points="65,495.187,69,505.187,73,495.187,69,499.187" style="stroke:#181818;stroke-width:1.0;"/><line style="stroke:#181818;stroke-width:1.0;" x1="230" x2="230" y1="577.5894" y2="601.9917"/><polygon fill="#181818" points="226,591.9917,230,601.9917,234,591.9917,230,595.9917" style="stroke:#181818;stroke-width:1.0;"/><line style="stroke:#181818;stroke-width:1.0;" x1="288.5" x2="320.5" y1="565.5894" y2="565.5894"/><polygon fill="#181818" points="310.5,561.5894,320.5,565.5894,310.5,569.5894,314.5,565.5894" style="stroke:#181818;stroke-width:1.0;"/><line style="stroke:#181818;stroke-width:1.0;" x1="230" x2="230" y1="635.9604" y2="645.9604"/><line style="stroke:#181818;stroke-width:1.0;" x1="230" x2="374" y1="645.9604" y2="645.9604"/><polygon fill="#181818" points="370,538.0894,374,528.0894,378,538.0894,374,534.0894" style="stroke:#181818;stroke-width:1.0;"/><line style="stroke:#181818;stroke-width:1.0;" x1="374" x2="374" y1="368.4136" y2="645.9604"/><line style="stroke:#181818;stroke-width:1.0;" x1="374" x2="233" y1="368.4136" y2="368.4136"/><polygon fill="#181818" points="243,364.4136,233,368.4136,243,372.4136,239,368.4136" style="stroke:#181818;stroke-width:1.0;"/><line style="stroke:#181818;stroke-width:1.0;" x1="230" x2="230" y1="529.187" y2="553.5894"/><polygon fill="#181818" points="226,543.5894,230,553.5894,234,543.5894,230,547.5894" style="stroke:#181818;stroke-width:1.0;"/><line style="stroke:#181818;stroke-width:1.0;" x1="306" x2="338" y1="517.187" y2="517.187"/><polygon fill="#181818" points="328,513.187,338,517.187,328,521.187,332,517.187" style="stroke:#181818;stroke-width:1.0;"/><line style="stroke:#181818;stroke-width:1.0;" x1="230" x2="230" y1="485.187" y2="505.187"/><polygon fill="#181818" points="226,495.187,230,505.187,234,495.187,230,499.187" style="stroke:#181818;stroke-width:1.0;"/><line style="stroke:#181818;stroke-width:1.0;" x1="79" x2="69" y1="429.2183" y2="429.2183"/><line style="stroke:#181818;stroke-width:1.0;" x1="69" x2="69" y1="429.2183" y2="451.2183"/><polygon fill="#181818" points="65,441.2183,69,451.2183,73,441.2183,69,445.2183" style="stroke:#181818;stroke-width:1.0;"/><line style="stroke:#181818;stroke-width:1.0;" x1="220" x2="230" y1="429.2183" y2="429.2183"/><line style="stroke:#181818;stroke-width:1.0;" x1="230" x2="230" y1="429.2183" y2="451.2183"/><polygon fill="#181818" points="226,441.2183,230,451.2183,234,441.2183,230,445.2183" style="stroke:#181818;stroke-width:1.0;"/><line style="stroke:#181818;stroke-width:1.0;" x1="149.5" x2="149.5" y1="380.4136" y2="417.2183"/><polygon fill="#181818" points="145.5,407.2183,149.5,417.2183,153.5,407.2183,149.5,411.2183" style="stroke:#181818;stroke-width:1.0;"/><line style="stroke:#181818;stroke-width:1.0;" x1="66" x2="24" y1="368.4136" y2="368.4136"/><line style="stroke:#181818;stroke-width:1.0;" x1="24" x2="24" y1="368.4136" y2="404.4136"/><polygon fill="#181818" points="20,394.4136,24,404.4136,28,394.4136,24,398.4136" style="stroke:#181818;stroke-width:1.0;"/><line style="stroke:#181818;stroke-width:1.0;" x1="149.5" x2="149.5" y1="336.4136" y2="356.4136"/><polygon fill="#181818" points="145.5,346.4136,149.5,356.4136,153.5,346.4136,149.5,350.4136" style="stroke:#181818;stroke-width:1.0;"/><!--SRC=[RT0nSiCW40NGNgVufLGxbLLuaia9qgKai8fsWbaDhEFnMNmUtoiG8SUEJ07ByEUneAoUy6oLlrbFU6Np6Ss-IMgYDeWqaSahjiOvl9FtSkoNxHkvVedWE79sMXC9EbAUDpL-EKC2FiH4ru4JsY0TWYZQ4wMk-ITNnevalqhQIWXazQachaBk0JoWVIdk7DnFdfJShYiDX8KlOwjC_LmcbQbKv1DTeRlteChh5lBvsluZL-Zin4E071Gom76oQVV8k5KUEAl_dsF1yT3SbxN8I_t9triA_WC0]--></g></svg>