<?xml version="1.0" encoding="us-ascii" standalone="no"?><svg xmlns="http://www.w3.org/2000/svg" xmlns:xlink="http://www.w3.org/1999/xlink" contentStyleType="text/css" height="757px" preserveAspectRatio="none" style="width:817px;height:757px;background:#FFFFFF;" version="1.1" viewBox="0 0 817 757" width="817px" zoomAndPan="magnify"><defs/><g><text fill="#000000" font-family="sans-serif" font-size="14" font-weight="bold" lengthAdjust="spacing" textLength="91" x="356" y="22.9951">Vocabulary</text><!--class Connect4--><g id="elem_Connect4"><rect codeLine="2" fill="#F1F1F1" height="48" id="Connect4" rx="2.5" ry="2.5" style="stroke:#181818;stroke-width:0.5;" width="101" x="364.5" y="44.2969"/><ellipse cx="379.5" cy="60.2969" fill="#ADD1B2" rx="11" ry="11" style="stroke:#181818;stroke-width:1.0;"/><path d="M381.8438,55.9688 C380.9063,55.5313 380.3125,55.3906 379.4375,55.3906 C376.8125,55.3906 374.8125,57.4688 374.8125,60.1875 L374.8125,61.3125 C374.8125,63.8906 376.9219,65.7813 379.8125,65.7813 C381.0313,65.7813 382.1875,65.4844 382.9375,64.9375 C383.5156,64.5313 383.8438,64.0781 383.8438,63.6875 C383.8438,63.2344 383.4531,62.8438 382.9844,62.8438 C382.7656,62.8438 382.5625,62.9219 382.375,63.1094 C381.9219,63.5938 381.9219,63.5938 381.7344,63.6875 C381.3125,63.9531 380.625,64.0781 379.8594,64.0781 C377.8125,64.0781 376.5156,62.9844 376.5156,61.2813 L376.5156,60.1875 C376.5156,58.4063 377.7656,57.0938 379.5,57.0938 C380.0781,57.0938 380.6875,57.25 381.1563,57.5 C381.6406,57.7813 381.8125,58 381.9063,58.4063 C381.9688,58.8125 382,58.9375 382.1406,59.0625 C382.2813,59.2031 382.5156,59.3125 382.7344,59.3125 C383,59.3125 383.2656,59.1719 383.4375,58.9531 C383.5469,58.7969 383.5781,58.6094 383.5781,58.1875 L383.5781,56.7656 C383.5781,56.3281 383.5625,56.2031 383.4688,56.0469 C383.3125,55.7813 383.0313,55.6406 382.7344,55.6406 C382.4375,55.6406 382.2344,55.7344 382.0156,56.0469 L381.8438,55.9688 Z " fill="#000000"/><text fill="#000000" font-family="sans-serif" font-size="14" lengthAdjust="spacing" textLength="69" x="393.5" y="65.1436">Connect4</text><line style="stroke:#181818;stroke-width:0.5;" x1="365.5" x2="464.5" y1="76.2969" y2="76.2969"/><line style="stroke:#181818;stroke-width:0.5;" x1="365.5" x2="464.5" y1="84.2969" y2="84.2969"/></g><!--class Player--><g id="elem_Player"><rect codeLine="3" fill="#F1F1F1" height="48" id="Player" rx="2.5" ry="2.5" style="stroke:#181818;stroke-width:0.5;" width="76" x="361" y="278.2969"/><ellipse cx="376" cy="294.2969" fill="#ADD1B2" rx="11" ry="11" style="stroke:#181818;stroke-width:1.0;"/><path d="M378.3438,289.9688 C377.4063,289.5313 376.8125,289.3906 375.9375,289.3906 C373.3125,289.3906 371.3125,291.4688 371.3125,294.1875 L371.3125,295.3125 C371.3125,297.8906 373.4219,299.7813 376.3125,299.7813 C377.5313,299.7813 378.6875,299.4844 379.4375,298.9375 C380.0156,298.5313 380.3438,298.0781 380.3438,297.6875 C380.3438,297.2344 379.9531,296.8438 379.4844,296.8438 C379.2656,296.8438 379.0625,296.9219 378.875,297.1094 C378.4219,297.5938 378.4219,297.5938 378.2344,297.6875 C377.8125,297.9531 377.125,298.0781 376.3594,298.0781 C374.3125,298.0781 373.0156,296.9844 373.0156,295.2813 L373.0156,294.1875 C373.0156,292.4063 374.2656,291.0938 376,291.0938 C376.5781,291.0938 377.1875,291.25 377.6563,291.5 C378.1406,291.7813 378.3125,292 378.4063,292.4063 C378.4688,292.8125 378.5,292.9375 378.6406,293.0625 C378.7813,293.2031 379.0156,293.3125 379.2344,293.3125 C379.5,293.3125 379.7656,293.1719 379.9375,292.9531 C380.0469,292.7969 380.0781,292.6094 380.0781,292.1875 L380.0781,290.7656 C380.0781,290.3281 380.0625,290.2031 379.9688,290.0469 C379.8125,289.7813 379.5313,289.6406 379.2344,289.6406 C378.9375,289.6406 378.7344,289.7344 378.5156,290.0469 L378.3438,289.9688 Z " fill="#000000"/><text fill="#000000" font-family="sans-serif" font-size="14" lengthAdjust="spacing" textLength="44" x="390" y="299.1436">Player</text><line style="stroke:#181818;stroke-width:0.5;" x1="362" x2="436" y1="310.2969" y2="310.2969"/><line style="stroke:#181818;stroke-width:0.5;" x1="362" x2="436" y1="318.2969" y2="318.2969"/></g><!--class Board--><g id="elem_Board"><rect codeLine="4" fill="#F1F1F1" height="48" id="Board" rx="2.5" ry="2.5" style="stroke:#181818;stroke-width:0.5;" width="74" x="104" y="411.7969"/><ellipse cx="119" cy="427.7969" fill="#ADD1B2" rx="11" ry="11" style="stroke:#181818;stroke-width:1.0;"/><path d="M121.3438,423.4688 C120.4063,423.0313 119.8125,422.8906 118.9375,422.8906 C116.3125,422.8906 114.3125,424.9688 114.3125,427.6875 L114.3125,428.8125 C114.3125,431.3906 116.4219,433.2813 119.3125,433.2813 C120.5313,433.2813 121.6875,432.9844 122.4375,432.4375 C123.0156,432.0313 123.3438,431.5781 123.3438,431.1875 C123.3438,430.7344 122.9531,430.3438 122.4844,430.3438 C122.2656,430.3438 122.0625,430.4219 121.875,430.6094 C121.4219,431.0938 121.4219,431.0938 121.2344,431.1875 C120.8125,431.4531 120.125,431.5781 119.3594,431.5781 C117.3125,431.5781 116.0156,430.4844 116.0156,428.7813 L116.0156,427.6875 C116.0156,425.9063 117.2656,424.5938 119,424.5938 C119.5781,424.5938 120.1875,424.75 120.6563,425 C121.1406,425.2813 121.3125,425.5 121.4063,425.9063 C121.4688,426.3125 121.5,426.4375 121.6406,426.5625 C121.7813,426.7031 122.0156,426.8125 122.2344,426.8125 C122.5,426.8125 122.7656,426.6719 122.9375,426.4531 C123.0469,426.2969 123.0781,426.1094 123.0781,425.6875 L123.0781,424.2656 C123.0781,423.8281 123.0625,423.7031 122.9688,423.5469 C122.8125,423.2813 122.5313,423.1406 122.2344,423.1406 C121.9375,423.1406 121.7344,423.2344 121.5156,423.5469 L121.3438,423.4688 Z " fill="#000000"/><text fill="#000000" font-family="sans-serif" font-size="14" lengthAdjust="spacing" textLength="42" x="133" y="432.6436">Board</text><line style="stroke:#181818;stroke-width:0.5;" x1="105" x2="177" y1="443.7969" y2="443.7969"/><line style="stroke:#181818;stroke-width:0.5;" x1="105" x2="177" y1="451.7969" y2="451.7969"/></g><!--class Piece--><g id="elem_Piece"><rect codeLine="5" fill="#F1F1F1" height="48" id="Piece" rx="2.5" ry="2.5" style="stroke:#181818;stroke-width:0.5;" width="71" x="365.5" y="561.2969"/><ellipse cx="380.5" cy="577.2969" fill="#ADD1B2" rx="11" ry="11" style="stroke:#181818;stroke-width:1.0;"/><path d="M382.8438,572.9688 C381.9063,572.5313 381.3125,572.3906 380.4375,572.3906 C377.8125,572.3906 375.8125,574.4688 375.8125,577.1875 L375.8125,578.3125 C375.8125,580.8906 377.9219,582.7813 380.8125,582.7813 C382.0313,582.7813 383.1875,582.4844 383.9375,581.9375 C384.5156,581.5313 384.8438,581.0781 384.8438,580.6875 C384.8438,580.2344 384.4531,579.8438 383.9844,579.8438 C383.7656,579.8438 383.5625,579.9219 383.375,580.1094 C382.9219,580.5938 382.9219,580.5938 382.7344,580.6875 C382.3125,580.9531 381.625,581.0781 380.8594,581.0781 C378.8125,581.0781 377.5156,579.9844 377.5156,578.2813 L377.5156,577.1875 C377.5156,575.4063 378.7656,574.0938 380.5,574.0938 C381.0781,574.0938 381.6875,574.25 382.1563,574.5 C382.6406,574.7813 382.8125,575 382.9063,575.4063 C382.9688,575.8125 383,575.9375 383.1406,576.0625 C383.2813,576.2031 383.5156,576.3125 383.7344,576.3125 C384,576.3125 384.2656,576.1719 384.4375,575.9531 C384.5469,575.7969 384.5781,575.6094 384.5781,575.1875 L384.5781,573.7656 C384.5781,573.3281 384.5625,573.2031 384.4688,573.0469 C384.3125,572.7813 384.0313,572.6406 383.7344,572.6406 C383.4375,572.6406 383.2344,572.7344 383.0156,573.0469 L382.8438,572.9688 Z " fill="#000000"/><text fill="#000000" font-family="sans-serif" font-size="14" lengthAdjust="spacing" textLength="39" x="394.5" y="582.1436">Piece</text><line style="stroke:#181818;stroke-width:0.5;" x1="366.5" x2="435.5" y1="593.2969" y2="593.2969"/><line style="stroke:#181818;stroke-width:0.5;" x1="366.5" x2="435.5" y1="601.2969" y2="601.2969"/></g><!--class Row--><g id="elem_Row"><rect codeLine="6" fill="#F1F1F1" height="48" id="Row" rx="2.5" ry="2.5" style="stroke:#181818;stroke-width:0.5;" width="62" x="134" y="561.2969"/><ellipse cx="149" cy="577.2969" fill="#ADD1B2" rx="11" ry="11" style="stroke:#181818;stroke-width:1.0;"/><path d="M151.3438,572.9688 C150.4063,572.5313 149.8125,572.3906 148.9375,572.3906 C146.3125,572.3906 144.3125,574.4688 144.3125,577.1875 L144.3125,578.3125 C144.3125,580.8906 146.4219,582.7813 149.3125,582.7813 C150.5313,582.7813 151.6875,582.4844 152.4375,581.9375 C153.0156,581.5313 153.3438,581.0781 153.3438,580.6875 C153.3438,580.2344 152.9531,579.8438 152.4844,579.8438 C152.2656,579.8438 152.0625,579.9219 151.875,580.1094 C151.4219,580.5938 151.4219,580.5938 151.2344,580.6875 C150.8125,580.9531 150.125,581.0781 149.3594,581.0781 C147.3125,581.0781 146.0156,579.9844 146.0156,578.2813 L146.0156,577.1875 C146.0156,575.4063 147.2656,574.0938 149,574.0938 C149.5781,574.0938 150.1875,574.25 150.6563,574.5 C151.1406,574.7813 151.3125,575 151.4063,575.4063 C151.4688,575.8125 151.5,575.9375 151.6406,576.0625 C151.7813,576.2031 152.0156,576.3125 152.2344,576.3125 C152.5,576.3125 152.7656,576.1719 152.9375,575.9531 C153.0469,575.7969 153.0781,575.6094 153.0781,575.1875 L153.0781,573.7656 C153.0781,573.3281 153.0625,573.2031 152.9688,573.0469 C152.8125,572.7813 152.5313,572.6406 152.2344,572.6406 C151.9375,572.6406 151.7344,572.7344 151.5156,573.0469 L151.3438,572.9688 Z " fill="#000000"/><text fill="#000000" font-family="sans-serif" font-size="14" lengthAdjust="spacing" textLength="30" x="163" y="582.1436">Row</text><line style="stroke:#181818;stroke-width:0.5;" x1="135" x2="195" y1="593.2969" y2="593.2969"/><line style="stroke:#181818;stroke-width:0.5;" x1="135" x2="195" y1="601.2969" y2="601.2969"/></g><!--class Column--><g id="elem_Column"><rect codeLine="7" fill="#F1F1F1" height="48" id="Column" rx="2.5" ry="2.5" style="stroke:#181818;stroke-width:0.5;" width="86" x="7" y="561.2969"/><ellipse cx="22" cy="577.2969" fill="#ADD1B2" rx="11" ry="11" style="stroke:#181818;stroke-width:1.0;"/><path d="M24.3438,572.9688 C23.4063,572.5313 22.8125,572.3906 21.9375,572.3906 C19.3125,572.3906 17.3125,574.4688 17.3125,577.1875 L17.3125,578.3125 C17.3125,580.8906 19.4219,582.7813 22.3125,582.7813 C23.5313,582.7813 24.6875,582.4844 25.4375,581.9375 C26.0156,581.5313 26.3438,581.0781 26.3438,580.6875 C26.3438,580.2344 25.9531,579.8438 25.4844,579.8438 C25.2656,579.8438 25.0625,579.9219 24.875,580.1094 C24.4219,580.5938 24.4219,580.5938 24.2344,580.6875 C23.8125,580.9531 23.125,581.0781 22.3594,581.0781 C20.3125,581.0781 19.0156,579.9844 19.0156,578.2813 L19.0156,577.1875 C19.0156,575.4063 20.2656,574.0938 22,574.0938 C22.5781,574.0938 23.1875,574.25 23.6563,574.5 C24.1406,574.7813 24.3125,575 24.4063,575.4063 C24.4688,575.8125 24.5,575.9375 24.6406,576.0625 C24.7813,576.2031 25.0156,576.3125 25.2344,576.3125 C25.5,576.3125 25.7656,576.1719 25.9375,575.9531 C26.0469,575.7969 26.0781,575.6094 26.0781,575.1875 L26.0781,573.7656 C26.0781,573.3281 26.0625,573.2031 25.9688,573.0469 C25.8125,572.7813 25.5313,572.6406 25.2344,572.6406 C24.9375,572.6406 24.7344,572.7344 24.5156,573.0469 L24.3438,572.9688 Z " fill="#000000"/><text fill="#000000" font-family="sans-serif" font-size="14" lengthAdjust="spacing" textLength="54" x="36" y="582.1436">Column</text><line style="stroke:#181818;stroke-width:0.5;" x1="8" x2="92" y1="593.2969" y2="593.2969"/><line style="stroke:#181818;stroke-width:0.5;" x1="8" x2="92" y1="601.2969" y2="601.2969"/></g><!--class Turn--><g id="elem_Turn"><rect codeLine="8" fill="#F1F1F1" height="48" id="Turn" rx="2.5" ry="2.5" style="stroke:#181818;stroke-width:0.5;" width="64" x="330" y="153.2969"/><ellipse cx="345" cy="169.2969" fill="#ADD1B2" rx="11" ry="11" style="stroke:#181818;stroke-width:1.0;"/><path d="M347.3438,164.9688 C346.4063,164.5313 345.8125,164.3906 344.9375,164.3906 C342.3125,164.3906 340.3125,166.4688 340.3125,169.1875 L340.3125,170.3125 C340.3125,172.8906 342.4219,174.7813 345.3125,174.7813 C346.5313,174.7813 347.6875,174.4844 348.4375,173.9375 C349.0156,173.5313 349.3438,173.0781 349.3438,172.6875 C349.3438,172.2344 348.9531,171.8438 348.4844,171.8438 C348.2656,171.8438 348.0625,171.9219 347.875,172.1094 C347.4219,172.5938 347.4219,172.5938 347.2344,172.6875 C346.8125,172.9531 346.125,173.0781 345.3594,173.0781 C343.3125,173.0781 342.0156,171.9844 342.0156,170.2813 L342.0156,169.1875 C342.0156,167.4063 343.2656,166.0938 345,166.0938 C345.5781,166.0938 346.1875,166.25 346.6563,166.5 C347.1406,166.7813 347.3125,167 347.4063,167.4063 C347.4688,167.8125 347.5,167.9375 347.6406,168.0625 C347.7813,168.2031 348.0156,168.3125 348.2344,168.3125 C348.5,168.3125 348.7656,168.1719 348.9375,167.9531 C349.0469,167.7969 349.0781,167.6094 349.0781,167.1875 L349.0781,165.7656 C349.0781,165.3281 349.0625,165.2031 348.9688,165.0469 C348.8125,164.7813 348.5313,164.6406 348.2344,164.6406 C347.9375,164.6406 347.7344,164.7344 347.5156,165.0469 L347.3438,164.9688 Z " fill="#000000"/><text fill="#000000" font-family="sans-serif" font-size="14" lengthAdjust="spacing" textLength="32" x="359" y="174.1436">Turn</text><line style="stroke:#181818;stroke-width:0.5;" x1="331" x2="393" y1="185.2969" y2="185.2969"/><line style="stroke:#181818;stroke-width:0.5;" x1="331" x2="393" y1="193.2969" y2="193.2969"/></g><!--class Aggregation--><g id="elem_Aggregation"><rect codeLine="9" fill="#F1F1F1" height="48" id="Aggregation" rx="2.5" ry="2.5" style="stroke:#181818;stroke-width:0.5;" width="121" x="220.5" y="411.7969"/><ellipse cx="235.5" cy="427.7969" fill="#ADD1B2" rx="11" ry="11" style="stroke:#181818;stroke-width:1.0;"/><path d="M237.8438,423.4688 C236.9063,423.0313 236.3125,422.8906 235.4375,422.8906 C232.8125,422.8906 230.8125,424.9688 230.8125,427.6875 L230.8125,428.8125 C230.8125,431.3906 232.9219,433.2813 235.8125,433.2813 C237.0313,433.2813 238.1875,432.9844 238.9375,432.4375 C239.5156,432.0313 239.8438,431.5781 239.8438,431.1875 C239.8438,430.7344 239.4531,430.3438 238.9844,430.3438 C238.7656,430.3438 238.5625,430.4219 238.375,430.6094 C237.9219,431.0938 237.9219,431.0938 237.7344,431.1875 C237.3125,431.4531 236.625,431.5781 235.8594,431.5781 C233.8125,431.5781 232.5156,430.4844 232.5156,428.7813 L232.5156,427.6875 C232.5156,425.9063 233.7656,424.5938 235.5,424.5938 C236.0781,424.5938 236.6875,424.75 237.1563,425 C237.6406,425.2813 237.8125,425.5 237.9063,425.9063 C237.9688,426.3125 238,426.4375 238.1406,426.5625 C238.2813,426.7031 238.5156,426.8125 238.7344,426.8125 C239,426.8125 239.2656,426.6719 239.4375,426.4531 C239.5469,426.2969 239.5781,426.1094 239.5781,425.6875 L239.5781,424.2656 C239.5781,423.8281 239.5625,423.7031 239.4688,423.5469 C239.3125,423.2813 239.0313,423.1406 238.7344,423.1406 C238.4375,423.1406 238.2344,423.2344 238.0156,423.5469 L237.8438,423.4688 Z " fill="#000000"/><text fill="#000000" font-family="sans-serif" font-size="14" lengthAdjust="spacing" textLength="89" x="249.5" y="432.6436">Aggregation</text><line style="stroke:#181818;stroke-width:0.5;" x1="221.5" x2="340.5" y1="443.7969" y2="443.7969"/><line style="stroke:#181818;stroke-width:0.5;" x1="221.5" x2="340.5" y1="451.7969" y2="451.7969"/></g><!--class Color--><g id="elem_Color"><rect codeLine="10" fill="#F1F1F1" height="80.5938" id="Color" rx="2.5" ry="2.5" style="stroke:#181818;stroke-width:0.5;" width="70" x="366" y="670.2969"/><ellipse cx="381" cy="686.2969" fill="#EB937F" rx="11" ry="11" style="stroke:#181818;stroke-width:1.0;"/><path d="M379.7969,687.1719 L381.25,687.1719 L381.25,687.2813 C381.25,687.6875 381.2813,687.8438 381.3594,688 C381.5156,688.25 381.7969,688.4063 382.0938,688.4063 C382.3438,688.4063 382.6094,688.2656 382.7656,688.0469 C382.8906,687.8906 382.9219,687.7344 382.9219,687.2813 L382.9219,685.3594 C382.9219,685.2031 382.9219,685.1563 382.9063,685 C382.8438,684.5313 382.5313,684.2188 382.0781,684.2188 C381.8281,684.2188 381.5625,684.3594 381.3906,684.5781 C381.2813,684.75 381.25,684.9063 381.25,685.3594 L381.25,685.4844 L379.7969,685.4844 L379.7969,683.0781 L383.7813,683.0781 L383.7813,683.9375 C383.7813,684.3438 383.8125,684.5156 383.8906,684.6719 C384.0625,684.9219 384.3438,685.0781 384.625,685.0781 C384.8906,685.0781 385.1563,684.9375 385.3281,684.7188 C385.4375,684.5469 385.4688,684.4063 385.4688,683.9375 L385.4688,681.3906 L377.8438,681.3906 C377.4063,681.3906 377.2813,681.4063 377.125,681.5 C376.875,681.6563 376.7188,681.9531 376.7188,682.2344 C376.7188,682.5156 376.8594,682.7656 377.0781,682.9375 C377.2344,683.0469 377.4219,683.0781 377.8438,683.0781 L378.0938,683.0781 L378.0938,689.5938 L377.8438,689.5938 C377.4375,689.5938 377.2813,689.6094 377.125,689.7188 C376.875,689.8906 376.7188,690.1563 376.7188,690.4531 C376.7188,690.7188 376.8594,690.9688 377.0781,691.125 C377.2188,691.25 377.4531,691.2969 377.8438,691.2969 L385.8438,691.2969 L385.8438,688.7188 C385.8438,688.2813 385.8125,688.1406 385.7344,687.9844 C385.5625,687.7344 385.2813,687.5781 385,687.5781 C384.7344,687.5781 384.4688,687.6875 384.2969,687.9375 C384.1875,688.0938 384.1563,688.2344 384.1563,688.7188 L384.1563,689.5938 L379.7969,689.5938 L379.7969,687.1719 Z " fill="#000000"/><text fill="#000000" font-family="sans-serif" font-size="14" lengthAdjust="spacing" textLength="38" x="395" y="691.1436">Color</text><line style="stroke:#181818;stroke-width:0.5;" x1="367" x2="435" y1="702.2969" y2="702.2969"/><text fill="#000000" font-family="sans-serif" font-size="14" lengthAdjust="spacing" textLength="28" x="372" y="719.292">Red</text><text fill="#000000" font-family="sans-serif" font-size="14" lengthAdjust="spacing" textLength="46" x="372" y="735.5889">Yellow</text><line style="stroke:#181818;stroke-width:0.5;" x1="367" x2="435" y1="742.8906" y2="742.8906"/></g><!--class Target--><g id="elem_Target"><rect codeLine="14" fill="#F1F1F1" height="96.8906" id="Target" rx="2.5" ry="2.5" style="stroke:#181818;stroke-width:0.5;" width="86" x="452" y="387.2969"/><ellipse cx="469.7" cy="403.2969" fill="#EB937F" rx="11" ry="11" style="stroke:#181818;stroke-width:1.0;"/><path d="M468.4969,404.1719 L469.95,404.1719 L469.95,404.2813 C469.95,404.6875 469.9813,404.8438 470.0594,405 C470.2156,405.25 470.4969,405.4063 470.7938,405.4063 C471.0438,405.4063 471.3094,405.2656 471.4656,405.0469 C471.5906,404.8906 471.6219,404.7344 471.6219,404.2813 L471.6219,402.3594 C471.6219,402.2031 471.6219,402.1563 471.6063,402 C471.5438,401.5313 471.2313,401.2188 470.7781,401.2188 C470.5281,401.2188 470.2625,401.3594 470.0906,401.5781 C469.9813,401.75 469.95,401.9063 469.95,402.3594 L469.95,402.4844 L468.4969,402.4844 L468.4969,400.0781 L472.4813,400.0781 L472.4813,400.9375 C472.4813,401.3438 472.5125,401.5156 472.5906,401.6719 C472.7625,401.9219 473.0438,402.0781 473.325,402.0781 C473.5906,402.0781 473.8563,401.9375 474.0281,401.7188 C474.1375,401.5469 474.1688,401.4063 474.1688,400.9375 L474.1688,398.3906 L466.5438,398.3906 C466.1063,398.3906 465.9813,398.4063 465.825,398.5 C465.575,398.6563 465.4188,398.9531 465.4188,399.2344 C465.4188,399.5156 465.5594,399.7656 465.7781,399.9375 C465.9344,400.0469 466.1219,400.0781 466.5438,400.0781 L466.7938,400.0781 L466.7938,406.5938 L466.5438,406.5938 C466.1375,406.5938 465.9813,406.6094 465.825,406.7188 C465.575,406.8906 465.4188,407.1563 465.4188,407.4531 C465.4188,407.7188 465.5594,407.9688 465.7781,408.125 C465.9188,408.25 466.1531,408.2969 466.5438,408.2969 L474.5438,408.2969 L474.5438,405.7188 C474.5438,405.2813 474.5125,405.1406 474.4344,404.9844 C474.2625,404.7344 473.9813,404.5781 473.7,404.5781 C473.4344,404.5781 473.1688,404.6875 472.9969,404.9375 C472.8875,405.0938 472.8563,405.2344 472.8563,405.7188 L472.8563,406.5938 L468.4969,406.5938 L468.4969,404.1719 Z " fill="#000000"/><text fill="#000000" font-family="sans-serif" font-size="14" lengthAdjust="spacing" textLength="48" x="484.3" y="408.1436">Target</text><line style="stroke:#181818;stroke-width:0.5;" x1="453" x2="537" y1="419.2969" y2="419.2969"/><text fill="#000000" font-family="sans-serif" font-size="14" lengthAdjust="spacing" textLength="74" x="458" y="436.292">Horizontal</text><text fill="#000000" font-family="sans-serif" font-size="14" lengthAdjust="spacing" textLength="56" x="458" y="452.5889">Vertical</text><text fill="#000000" font-family="sans-serif" font-size="14" lengthAdjust="spacing" textLength="62" x="458" y="468.8857">Diagonal</text><line style="stroke:#181818;stroke-width:0.5;" x1="453" x2="537" y1="476.1875" y2="476.1875"/></g><g id="elem_GMN12"><path d="M573.5,415.7969 L573.5,431.7969 L538.164,435.7969 L573.5,439.7969 L573.5,456.0625 A0,0 0 0 0 573.5,456.0625 L756.5,456.0625 A0,0 0 0 0 756.5,456.0625 L756.5,425.7969 L746.5,415.7969 L573.5,415.7969 A0,0 0 0 0 573.5,415.7969 " fill="#FEFFDD" style="stroke:#181818;stroke-width:0.5;"/><path d="M746.5,415.7969 L746.5,425.7969 L756.5,425.7969 L746.5,415.7969 " fill="#FEFFDD" style="stroke:#181818;stroke-width:0.5;"/><text fill="#000000" font-family="sans-serif" font-size="13" lengthAdjust="spacing" textLength="142" x="579.5" y="432.8638">Align four consecutive</text><text fill="#000000" font-family="sans-serif" font-size="13" lengthAdjust="spacing" textLength="162" x="579.5" y="447.9966">pieces of the same color.</text></g><!--reverse link Connect4 to Player--><g id="link_Connect4_Player"><path codeLine="21" d="M422.8329,104.2937 C429.9429,138.7827 437.7,193.5709 425,248.2969 C422.614,258.5799 417.939,269.1679 413.203,278.1509 " fill="none" id="Connect4-backto-Player" style="stroke:#181818;stroke-width:1.0;"/><polygon fill="#181818" points="420.41,92.5409,417.7038,99.2249,422.8329,104.2937,425.5391,97.6097,420.41,92.5409" style="stroke:#181818;stroke-width:1.0;"/><text fill="#000000" font-family="sans-serif" font-size="13" lengthAdjust="spacing" textLength="8" x="407.8175" y="267.1255">2</text></g><!--reverse link Connect4 to Board--><g id="link_Connect4_Board"><path codeLine="22" d="M371.2557,99.5284 C349.8757,115.1264 332.301,129.9749 312,153.2969 C237.475,238.9099 175.711,361.0019 151.726,411.5289 " fill="none" id="Connect4-backto-Board" style="stroke:#181818;stroke-width:1.0;"/><polygon fill="#181818" points="380.95,92.4559,373.7453,92.7607,371.2557,99.5284,378.4604,99.2236,380.95,92.4559" style="stroke:#181818;stroke-width:1.0;"/></g><!--reverse link Connect4 to Piece--><g id="link_Connect4_Piece"><path codeLine="23" d="M477.7983,73.2795 C584.4813,81.1745 810,105.7819 810,176.2969 C810,176.2969 810,176.2969 810,436.7969 C810,515.8659 536.088,564.3039 436.581,579.2919 " fill="none" id="Connect4-backto-Piece" style="stroke:#181818;stroke-width:1.0;"/><polygon fill="#181818" points="465.831,72.3939,471.5194,76.8258,477.7983,73.2795,472.1098,68.8476,465.831,72.3939" style="stroke:#181818;stroke-width:1.0;"/><text fill="#000000" font-family="sans-serif" font-size="13" lengthAdjust="spacing" textLength="32" x="444.4793" y="574.301">2x21</text></g><!--reverse link Connect4 to Turn--><g id="link_Connect4_Turn"><path codeLine="24" d="M398.1737,103.2671 C389.2837,121.2151 382.362,135.1889 373.478,153.1249 " fill="none" id="Connect4-backto-Turn" style="stroke:#181818;stroke-width:1.0;"/><polygon fill="#181818" points="403.5,92.5139,397.2525,96.115,398.1737,103.2671,404.4213,99.6659,403.5,92.5139" style="stroke:#181818;stroke-width:1.0;"/></g><!--reverse link Board to Row--><g id="link_Board_Row"><path codeLine="26" d="M146.677,471.6881 C151.159,499.2361 156.691,533.2339 161.197,560.9249 " fill="none" id="Board-backto-Row" style="stroke:#181818;stroke-width:1.0;"/><polygon fill="#181818" points="144.75,459.8439,141.7654,466.4084,146.677,471.6881,149.6616,465.1237,144.75,459.8439" style="stroke:#181818;stroke-width:1.0;"/><text fill="#000000" font-family="sans-serif" font-size="13" lengthAdjust="spacing" textLength="8" x="151.295" y="550.2392">6</text></g><!--reverse link Board to Column--><g id="link_Board_Column"><path codeLine="27" d="M93.5429,460.0487 C70.5197,473.0507 53.2947,487.3379 40,514.2969 C32.8329,528.8299 35.7156,546.9869 40.1897,561.1669 " fill="none" id="Board-backto-Column" style="stroke:#181818;stroke-width:1.0;"/><polygon fill="#181818" points="103.9918,454.1479,96.8004,453.6153,93.5429,460.0487,100.7343,460.5813,103.9918,454.1479" style="stroke:#181818;stroke-width:1.0;"/><text fill="#000000" font-family="sans-serif" font-size="13" lengthAdjust="spacing" textLength="8" x="28.6508" y="550.1456">7</text></g><!--reverse link Board to Piece--><g id="link_Board_Piece"><path codeLine="28" d="M176.4381,467.5278 C187.0271,476.0578 190.38,477.7049 203,484.2969 C241.871,504.5999 257.525,495.1949 297,514.2969 C323.644,527.1899 351.331,546.1399 371.432,561.0729 " fill="none" id="Board-backto-Piece" style="stroke:#181818;stroke-width:1.0;"/><polygon fill="none" points="167.093,459.9999,169.2562,466.8789,176.4381,467.5278,174.2748,460.6488,167.093,459.9999" style="stroke:#181818;stroke-width:1.0;"/></g><!--reverse link Player to Target--><g id="link_Player_Target"><path codeLine="30" d="M423.0177,336.1958 C435.2367,352.9328 445.085,366.4239 460.141,387.0469 " fill="none" id="Player-backto-Target" style="stroke:#181818;stroke-width:1.0;"/><polygon fill="#181818" points="415.942,326.5039,416.2492,333.7084,423.0177,336.1958,422.7105,328.9913,415.942,326.5039" style="stroke:#181818;stroke-width:1.0;"/></g><!--link Player to Piece--><g id="link_Player_Piece"><path codeLine="31" d="M399.167,326.7719 C399.544,379.7969 400.4163,502.313 400.7923,555.087 " fill="none" id="Player-to-Piece" style="stroke:#181818;stroke-width:1.0;stroke-dasharray:7.0,7.0;"/><polygon fill="#181818" points="400.835,561.0869,404.7708,552.0586,400.7994,556.087,396.771,552.1156,400.835,561.0869" style="stroke:#181818;stroke-width:1.0;"/><text fill="#000000" font-family="sans-serif" font-size="13" lengthAdjust="spacing" textLength="16" x="382.7427" y="550.0451">21</text></g><!--link Player to Aggregation--><g id="link_Player_Aggregation"><path codeLine="32" d="M378.176,326.5039 C356.739,350.3929 327.5263,382.9482 306.0203,406.9142 " fill="none" id="Player-to-Aggregation" style="stroke:#181818;stroke-width:1.0;stroke-dasharray:7.0,7.0;"/><polygon fill="#181818" points="302.013,411.3799,311.001,407.3529,305.3524,407.6585,305.0468,402.0099,302.013,411.3799" style="stroke:#181818;stroke-width:1.0;"/></g><!--link Piece to Color--><g id="link_Piece_Color"><path codeLine="34" d="M401,609.5259 C401,626.5749 401,644.1469 401,664.1526 " fill="none" id="Piece-to-Color" style="stroke:#181818;stroke-width:1.0;"/><polygon fill="#181818" points="401,670.1526,405,661.1526,401,665.1526,397,661.1526,401,670.1526" style="stroke:#181818;stroke-width:1.0;"/></g><!--link Turn to Player--><g id="link_Turn_Player"><path codeLine="36" d="M367.386,201.4619 C370.715,215.1699 375.248,232.8229 380,248.2969 C383.042,258.2019 384.7581,263.357 388.1441,272.6 " fill="none" id="Turn-to-Player" style="stroke:#181818;stroke-width:1.0;"/><polygon fill="#181818" points="390.208,278.2339,390.8681,268.4072,388.4881,273.539,383.3563,271.159,390.208,278.2339" style="stroke:#181818;stroke-width:1.0;"/><text fill="#000000" font-family="sans-serif" font-size="13" lengthAdjust="spacing" textLength="39" x="381" y="244.3638">active</text></g><!--link Aggregation to Column--><g id="link_Aggregation_Column"><path codeLine="38" d="M244.906,459.8439 C201.636,487.4729 134.604,530.2748 91.2777,557.9398 " fill="none" id="Aggregation-to-Column" style="stroke:#181818;stroke-width:1.0;"/><polygon fill="#181818" points="86.2207,561.1689,95.9589,559.6967,90.4349,558.478,91.6535,552.954,86.2207,561.1689" style="stroke:#181818;stroke-width:1.0;"/><text fill="#000000" font-family="sans-serif" font-size="13" lengthAdjust="spacing" textLength="38" x="160" y="527.3638">select</text></g><!--link Aggregation to Row--><g id="link_Aggregation_Row"><path codeLine="39" d="M262.875,459.8439 C241.21,487.3919 208.867,528.5176 187.09,556.2086 " fill="none" id="Aggregation-to-Row" style="stroke:#181818;stroke-width:1.0;"/><polygon fill="#181818" points="183.381,560.9249,192.0887,556.3231,186.4718,556.9946,185.8003,551.3778,183.381,560.9249" style="stroke:#181818;stroke-width:1.0;"/><text fill="#000000" font-family="sans-serif" font-size="13" lengthAdjust="spacing" textLength="97" x="221" y="527.3638">last row empty</text></g><!--link Aggregation to Piece--><g id="link_Aggregation_Piece"><path codeLine="40" d="M299.75,459.8439 C322.162,487.3919 355.6704,528.5797 378.1994,556.2707 " fill="none" id="Aggregation-to-Piece" style="stroke:#181818;stroke-width:1.0;stroke-dasharray:7.0,7.0;"/><polygon fill="#181818" points="381.986,560.9249,379.4089,551.4192,378.8305,557.0464,373.2033,556.468,381.986,560.9249" style="stroke:#181818;stroke-width:1.0;"/></g><!--link Target to Piece--><g id="link_Target_Piece"><path codeLine="42" d="M458.0318,494.8055 C441.7348,520.3775 432.0846,535.52 419.0736,555.936 " fill="none" id="Target-Piece" style="stroke:#181818;stroke-width:1.0;"/><polygon fill="#181818" points="464.481,484.6859,457.8832,487.596,458.0318,494.8055,464.6296,491.8954,464.481,484.6859" style="stroke:#181818;stroke-width:1.0;"/><polygon fill="#181818" points="415.849,560.9959,424.0591,555.5559,418.5362,556.7793,417.3127,551.2564,415.849,560.9959" style="stroke:#181818;stroke-width:1.0;"/><text fill="#000000" font-family="sans-serif" font-size="13" lengthAdjust="spacing" textLength="50" x="447" y="527.3638">achieve</text><text fill="#000000" font-family="sans-serif" font-size="13" lengthAdjust="spacing" textLength="8" x="410.4934" y="550.3275">4</text></g><!--SRC=[PL5DImCn4BtdLmnxB6p1KXHwA5GzU9HI2eANc4wpWMocPBFLLVhVdSr7sUebpBmtN-ybc60HzgJaHs-b7uIoiklWYPn35POvVRLoG9-JHvB-K0Y32dEyfSzhj-rRbvDTxqkuqTgZbi6G4-ZwTYma3py2O8i7Vj_GMfvoIUnEUeqXqY_apJUv82qdU_J1g1W-6wd9SNWHZWA2Dxe9AzXOenqSgVUWo7Me-c3E-EvEuxaTq152Wz395fdd4-P25CKmgske5bNHV8CdwNzAlnPtLJRYXed2HMn9bVTLz6Y2F5J5gmGIWscIIElJeEX3GURpDI-zhfoWKtj5PA6kryba8SPpOfwLmGga6cqHOj9OElWcBkZGifn_FAjWahyqWESGsrCOReh6QxAE_8cpiQzQvglZxiRW6Ny1]--></g></svg>